<svg version="1.1" xmlns="http://www.w3.org/2000/svg" viewBox="0 0 246.16567778922615 267.05884597725446" width="246.16567778922615" height="267.05884597725446" filter="invert(93%) hue-rotate(180deg)">
  <!-- svg-source:excalidraw -->
  
  <defs>
    <style class="style-fonts">
      @font-face {
        font-family: "Virgil";
        src: url("https://excalidraw.com/Virgil.woff2");
      }
      @font-face {
        font-family: "Cascadia";
        src: url("https://excalidraw.com/Cascadia.woff2");
      }
    </style>
    
  </defs>
  <g stroke-linecap="round" transform="translate(10 10) rotate(0 90.41558936533568 43.811249995083415)"><path d="M5.17 5.82 C5.17 5.82, 5.17 5.82, 5.17 5.82 M5.17 5.82 C5.17 5.82, 5.17 5.82, 5.17 5.82 M0.98 16.75 C6.06 11.49, 9.02 6.87, 13.44 2.41 M0.98 16.75 C6.21 10.98, 10.09 4.58, 13.44 2.41 M0.72 23.15 C6.3 14.67, 10.23 8.98, 19.74 1.26 M0.72 23.15 C8.26 13.74, 16.03 5.63, 19.74 1.26 M0.45 29.54 C7.72 22.64, 15.27 15.62, 24.07 2.38 M0.45 29.54 C8.87 20.26, 18.5 10.42, 24.07 2.38 M0.85 35.19 C11.72 24.11, 19.6 11.96, 29.72 1.98 M0.85 35.19 C8.17 27.64, 14.63 19.82, 29.72 1.98 M0.59 41.59 C11.93 29.57, 22.5 13.21, 34.7 2.34 M0.59 41.59 C11.06 28.44, 23.96 15.72, 34.7 2.34 M0.98 47.23 C12.75 36.74, 21.1 21.76, 40.35 1.95 M0.98 47.23 C12.95 32.4, 25.36 17.59, 40.35 1.95 M0.72 53.63 C12.4 42.08, 22.1 28.84, 45.33 2.31 M0.72 53.63 C17.53 35.21, 33.38 17.66, 45.33 2.31 M0.46 60.02 C20.03 38.54, 37.02 19, 50.98 1.91 M0.46 60.02 C18.46 38.63, 35.7 19.01, 50.98 1.91 M0.85 65.67 C17.64 47.45, 34.46 27.55, 55.96 2.27 M0.85 65.67 C15 48.88, 29.64 31.71, 55.96 2.27 M1.25 71.31 C16.94 55.14, 30.51 39.98, 61.61 1.88 M1.25 71.31 C19.44 50.55, 37.96 29.61, 61.61 1.88 M2.3 76.2 C16.96 58.3, 35.48 37.23, 66.59 2.24 M2.3 76.2 C24.54 50.29, 45.99 26.34, 66.59 2.24 M4.01 80.33 C23.1 59.67, 39.04 41.09, 72.24 1.84 M4.01 80.33 C20.52 61.86, 36.47 43.07, 72.24 1.84 M7.02 82.96 C24.76 64.35, 38.76 47.06, 77.22 2.2 M7.02 82.96 C27.83 61.93, 46.18 38.99, 77.22 2.2 M10.04 85.58 C35.11 55.27, 60.45 28.29, 82.87 1.81 M10.04 85.58 C29.75 63.06, 50.19 40, 82.87 1.81 M14.37 86.7 C38.72 58.32, 64.98 29.3, 87.85 2.17 M14.37 86.7 C30.45 68.9, 46.96 50.22, 87.85 2.17 M18.71 87.81 C42.48 57.83, 70.74 28.55, 93.5 1.77 M18.71 87.81 C35.25 68.85, 53.78 48.41, 93.5 1.77 M23.04 88.93 C48.81 61.86, 72.05 32.11, 98.48 2.13 M23.04 88.93 C45.73 61.6, 70.59 34.11, 98.48 2.13 M28.68 88.53 C48.36 65.13, 68.74 43.31, 104.13 1.74 M28.68 88.53 C56.13 56.81, 84.21 25.19, 104.13 1.74 M33.67 88.89 C55.41 63.35, 79.58 35.41, 109.11 2.1 M33.67 88.89 C59.15 56.75, 86.85 27.29, 109.11 2.1 M39.31 88.5 C60.61 66.62, 80.75 41.87, 114.1 2.46 M39.31 88.5 C59.41 66.26, 80.17 42.85, 114.1 2.46 M44.3 88.86 C71.48 55.05, 99.93 22.08, 119.74 2.06 M44.3 88.86 C69.15 60.21, 94.68 31.38, 119.74 2.06 M49.94 88.46 C70.54 64.33, 88.75 44.01, 124.73 2.43 M49.94 88.46 C75.63 58.31, 101.04 29.06, 124.73 2.43 M54.93 88.82 C74.8 65.88, 94.54 44.63, 130.37 2.03 M54.93 88.82 C76.71 62.47, 99.36 36.02, 130.37 2.03 M60.57 88.43 C81.27 63.71, 104.23 38.26, 135.36 2.39 M60.57 88.43 C85 58.07, 111.07 30, 135.36 2.39 M65.56 88.79 C87.45 61.71, 113.05 33.25, 141 2 M65.56 88.79 C90.56 62.89, 112.65 35.2, 141 2 M71.2 88.39 C97.52 57.22, 127.33 21.13, 145.99 2.36 M71.2 88.39 C85.43 71.3, 101.89 52.26, 145.99 2.36 M76.19 88.75 C105.8 57.11, 136.33 23.02, 151.63 1.96 M76.19 88.75 C95.86 65.61, 117.95 41.94, 151.63 1.96 M81.17 89.11 C100.31 68.24, 119.08 46.76, 156.62 2.32 M81.17 89.11 C99.4 68.96, 116.76 48.84, 156.62 2.32 M86.82 88.72 C104.26 68.18, 122.71 48.86, 161.61 2.68 M86.82 88.72 C106.43 65.47, 126.95 42.33, 161.61 2.68 M91.8 89.08 C106.12 68.88, 122.98 52.48, 165.94 3.8 M91.8 89.08 C117.31 58.27, 144.6 29.62, 165.94 3.8 M97.45 88.68 C122.64 58.15, 151.29 28.97, 170.93 4.16 M97.45 88.68 C117.63 65.37, 136.24 42.53, 170.93 4.16 M102.43 89.04 C128.32 61.28, 152.71 35.53, 175.26 5.27 M102.43 89.04 C130.73 55.03, 159.59 21.61, 175.26 5.27 M108.08 88.65 C128.58 66.81, 144.49 45.42, 177.62 8.65 M108.08 88.65 C125.3 70.93, 139.37 51.27, 177.62 8.65 M113.06 89.01 C138.34 57.3, 166.24 27.22, 180.64 11.27 M113.06 89.01 C128.98 70.91, 143.55 53.6, 180.64 11.27 M118.71 88.62 C137.11 69.57, 150.9 48.67, 181.03 16.92 M118.71 88.62 C139.6 63.09, 161.76 38.13, 181.03 16.92 M123.69 88.98 C141.45 65.95, 160.17 45.76, 180.77 23.32 M123.69 88.98 C137.02 70.76, 152.35 55.47, 180.77 23.32 M129.34 88.58 C143.45 69.97, 156.33 56.23, 181.17 28.96 M129.34 88.58 C141.74 72.56, 153.99 58.48, 181.17 28.96 M134.32 88.94 C146.56 75.98, 158.04 63.31, 180.9 35.36 M134.32 88.94 C149.56 73.19, 161.92 56.54, 180.9 35.36 M139.97 88.55 C156.01 70.82, 171.88 51.38, 181.3 41 M139.97 88.55 C156.68 70.55, 172.3 52.21, 181.3 41 M144.95 88.91 C159.13 72.8, 171.8 57.29, 181.04 47.4 M144.95 88.91 C155.89 76.87, 167.21 64.33, 181.04 47.4 M150.6 88.51 C160.47 78.7, 169.8 67.58, 181.43 53.04 M150.6 88.51 C156.8 81.93, 164.7 72.4, 181.43 53.04 M155.58 88.87 C164.24 78.27, 171.58 70.77, 181.17 59.44 M155.58 88.87 C162.02 80.59, 169.19 72.69, 181.17 59.44 M160.57 89.23 C168.2 83.61, 173.64 72.7, 180.91 65.84 M160.57 89.23 C165.68 82.4, 171.85 76.73, 180.91 65.84 M167.53 87.33 C170.79 83.61, 175.65 76.15, 179.34 73.74 M167.53 87.33 C170.76 83.77, 174.16 81.14, 179.34 73.74" stroke="#ced4da" stroke-width="0.5" fill="none"></path><path d="M21.91 0 M21.91 0 C68.96 -0.75, 118.21 0.71, 158.93 0 M21.91 0 C55.99 -0.5, 88.53 -0.29, 158.93 0 M158.93 0 C174 1.71, 182.44 8.6, 180.83 21.91 M158.93 0 C174.37 -1.36, 181.61 5.18, 180.83 21.91 M180.83 21.91 C179.52 30.91, 180.36 41.82, 180.83 65.72 M180.83 21.91 C181.16 37.4, 180.83 53.85, 180.83 65.72 M180.83 65.72 C179.49 80.13, 173.46 86.5, 158.93 87.62 M180.83 65.72 C182.97 82.31, 173.73 87.94, 158.93 87.62 M158.93 87.62 C105.98 89.12, 57.43 86.8, 21.91 87.62 M158.93 87.62 C123.02 87.83, 87.92 88.49, 21.91 87.62 M21.91 87.62 C5.46 88.8, 1.58 80.75, 0 65.72 M21.91 87.62 C9.11 86.53, 0.28 80.86, 0 65.72 M0 65.72 C-0.29 50.69, 1.1 33.68, 0 21.91 M0 65.72 C-0.62 51.4, 0.46 38.04, 0 21.91 M0 21.91 C1.23 9.06, 9.3 0.36, 21.91 0 M0 21.91 C-0.44 6.75, 5.22 -0.46, 21.91 0" stroke="#1e1e1e" stroke-width="1" fill="none"></path></g><g transform="translate(27.977060694680176 28.698928734033302) rotate(0 71.75994110107422 25)"><text x="71.75994110107422" y="0" font-family="Virgil, Segoe UI Emoji" font-size="20px" fill="#1e1e1e" text-anchor="middle" style="white-space: pre;" direction="ltr" dominant-baseline="text-before-edge">Fetch Request</text><text x="71.75994110107422" y="25" font-family="Virgil, Segoe UI Emoji" font-size="20px" fill="#1e1e1e" text-anchor="middle" style="white-space: pre;" direction="ltr" dominant-baseline="text-before-edge">using nodejs</text></g><g stroke-linecap="round"><g transform="translate(100.75064235493721 100.01495043397406) rotate(0 0.3043650001396827 34.079819891123684)"><path d="M-0.72 0.08 C-0.72 11.26, -0.98 56.37, -0.92 67.49 M1.1 -0.92 C1.55 10.44, 1.71 57.62, 1.31 69.08" stroke="#1e1e1e" stroke-width="1" fill="none"></path></g><g transform="translate(100.75064235493721 100.01495043397406) rotate(0 0.3043650001396827 34.079819891123684)"><path d="M-8.48 39.24 C-6.13 46.63, -4.97 52.92, 2.52 68.84 M-7.98 41.27 C-4.31 52.2, -0.75 61.75, 0.84 68.33" stroke="#1e1e1e" stroke-width="1" fill="none"></path></g><g transform="translate(100.75064235493721 100.01495043397406) rotate(0 0.3043650001396827 34.079819891123684)"><path d="M12.04 39.49 C9.79 46.69, 6.33 52.93, 2.52 68.84 M12.53 41.51 C8.28 52.52, 3.91 61.98, 0.84 68.33" stroke="#1e1e1e" stroke-width="1" fill="none"></path></g></g><mask></mask><g stroke-linecap="round" transform="translate(12.00466640675836 169.4363459870876) rotate(0 90.41558936533568 43.811249995083415)"><path d="M5.17 5.82 C5.17 5.82, 5.17 5.82, 5.17 5.82 M5.17 5.82 C5.17 5.82, 5.17 5.82, 5.17 5.82 M0.98 16.75 C4.4 10.31, 8.31 6.05, 13.44 2.41 M0.98 16.75 C4.94 13.29, 8.29 8.35, 13.44 2.41 M0.72 23.15 C7.65 18.11, 12.14 9.45, 19.74 1.26 M0.72 23.15 C7.07 15.99, 13.01 8.13, 19.74 1.26 M0.45 29.54 C8.68 20.76, 13.71 13.36, 24.07 2.38 M0.45 29.54 C6.57 22.46, 12.37 16.22, 24.07 2.38 M0.85 35.19 C13.52 23.51, 22.88 8.27, 29.72 1.98 M0.85 35.19 C11.16 22.62, 23.29 9.14, 29.72 1.98 M0.59 41.59 C6.93 33.62, 18.31 23.71, 34.7 2.34 M0.59 41.59 C13.92 27.4, 26.17 12.14, 34.7 2.34 M0.98 47.23 C11.98 35.07, 23.86 20.34, 40.35 1.95 M0.98 47.23 C12.48 35.36, 23.06 23.55, 40.35 1.95 M0.72 53.63 C13.19 37.02, 29.35 19.4, 45.33 2.31 M0.72 53.63 C11.14 41.58, 21.24 30.08, 45.33 2.31 M0.46 60.02 C17.78 38.92, 34.31 21.71, 50.98 1.91 M0.46 60.02 C15.15 42.37, 28.71 25.78, 50.98 1.91 M0.85 65.67 C13.85 49.67, 24.58 38.01, 55.96 2.27 M0.85 65.67 C23.04 41.63, 42.46 16.94, 55.96 2.27 M1.25 71.31 C26.68 44.2, 48.38 16.31, 61.61 1.88 M1.25 71.31 C18.14 52.73, 33.37 35.51, 61.61 1.88 M2.3 76.2 C24.26 53.77, 42.54 32.1, 66.59 2.24 M2.3 76.2 C22.85 53.19, 42.2 28.88, 66.59 2.24 M4.01 80.33 C27.57 50.68, 51.9 24, 72.24 1.84 M4.01 80.33 C23.22 56.76, 43.68 33.35, 72.24 1.84 M7.02 82.96 C30.72 55.79, 53.31 30.83, 77.22 2.2 M7.02 82.96 C30.37 57.62, 51.43 31.93, 77.22 2.2 M10.04 85.58 C24.6 68.08, 43.54 48.87, 82.87 1.81 M10.04 85.58 C24.95 67.86, 42.27 50.21, 82.87 1.81 M14.37 86.7 C36.29 62.32, 55.33 37.65, 87.85 2.17 M14.37 86.7 C41.67 55.63, 66.7 26.28, 87.85 2.17 M18.71 87.81 C38.05 61.94, 61.21 39.83, 93.5 1.77 M18.71 87.81 C42.21 59.57, 65.5 32.94, 93.5 1.77 M23.04 88.93 C52.65 56.68, 79.3 22.89, 98.48 2.13 M23.04 88.93 C52.45 55.25, 80.85 20.96, 98.48 2.13 M28.68 88.53 C47.12 66.76, 65.21 45.49, 104.13 1.74 M28.68 88.53 C45.1 68.73, 63.23 50.49, 104.13 1.74 M33.67 88.89 C54.18 65.55, 76.23 40.62, 109.11 2.1 M33.67 88.89 C56.76 63.74, 79.87 36.68, 109.11 2.1 M39.31 88.5 C66.19 57.46, 90.24 25.93, 114.1 2.46 M39.31 88.5 C55.78 68.91, 72.58 50.19, 114.1 2.46 M44.3 88.86 C62.26 70.59, 77.03 48.3, 119.74 2.06 M44.3 88.86 C71.22 58.04, 96.98 28.53, 119.74 2.06 M49.94 88.46 C71.68 64.35, 91.59 36.46, 124.73 2.43 M49.94 88.46 C75.29 59.8, 100.71 29.08, 124.73 2.43 M54.93 88.82 C82.22 60.4, 107.78 28.63, 130.37 2.03 M54.93 88.82 C78.95 61.58, 102.86 32.88, 130.37 2.03 M60.57 88.43 C78.09 67.43, 98.42 44.44, 135.36 2.39 M60.57 88.43 C78.42 66.49, 97.13 45.06, 135.36 2.39 M65.56 88.79 C91.8 57.87, 119.99 26.4, 141 2 M65.56 88.79 C91.11 56.83, 117.81 27.07, 141 2 M71.2 88.39 C89.27 65.11, 109.42 45.41, 145.99 2.36 M71.2 88.39 C100.77 56.02, 129.77 21.9, 145.99 2.36 M76.19 88.75 C91.77 67.26, 110.06 50.74, 151.63 1.96 M76.19 88.75 C100.94 61.3, 124.95 34.16, 151.63 1.96 M81.17 89.11 C101.76 66.64, 123.64 42.85, 156.62 2.32 M81.17 89.11 C98.78 70.64, 115.91 50.76, 156.62 2.32 M86.82 88.72 C108.14 63.44, 128.86 35.92, 161.61 2.68 M86.82 88.72 C108.71 63.58, 130.7 37.8, 161.61 2.68 M91.8 89.08 C109.89 64.96, 132.03 41.67, 165.94 3.8 M91.8 89.08 C120.6 54.95, 149.08 23.85, 165.94 3.8 M97.45 88.68 C113.61 70.96, 128.75 55.29, 170.93 4.16 M97.45 88.68 C114.43 70.63, 129.4 50.91, 170.93 4.16 M102.43 89.04 C128.38 58.59, 153.49 31.23, 175.26 5.27 M102.43 89.04 C127.51 60.78, 150.52 32.74, 175.26 5.27 M108.08 88.65 C131.38 61.52, 158.5 30.79, 177.62 8.65 M108.08 88.65 C125.6 65.95, 144.34 45.4, 177.62 8.65 M113.06 89.01 C131.16 68.08, 146.32 47.04, 180.64 11.27 M113.06 89.01 C134.66 64.72, 155.18 39.81, 180.64 11.27 M118.71 88.62 C135.12 72.9, 148.37 53.43, 181.03 16.92 M118.71 88.62 C136.7 67.08, 155.23 47.11, 181.03 16.92 M123.69 88.98 C135.26 72.54, 152.25 56.95, 180.77 23.32 M123.69 88.98 C143.98 64.44, 164.59 40.46, 180.77 23.32 M129.34 88.58 C145.33 72.14, 160.17 52.55, 181.17 28.96 M129.34 88.58 C147.21 67.78, 166.43 48.32, 181.17 28.96 M134.32 88.94 C151.2 69.18, 168.02 47.67, 180.9 35.36 M134.32 88.94 C148.35 71.82, 163.65 53.8, 180.9 35.36 M139.97 88.55 C149.89 75.58, 165.52 59.3, 181.3 41 M139.97 88.55 C155.96 70.09, 171.96 52.04, 181.3 41 M144.95 88.91 C154.31 76.83, 165.66 64.47, 181.04 47.4 M144.95 88.91 C154.69 78.69, 161.71 68.34, 181.04 47.4 M150.6 88.51 C159.99 77.71, 169.93 65.28, 181.43 53.04 M150.6 88.51 C161.43 75.9, 172 62.49, 181.43 53.04 M155.58 88.87 C163.47 81.8, 166.11 73.87, 181.17 59.44 M155.58 88.87 C164.98 77.87, 173.63 68.85, 181.17 59.44 M160.57 89.23 C166.25 81.01, 176.03 73.34, 180.91 65.84 M160.57 89.23 C168.27 81.31, 174.39 74.01, 180.91 65.84 M167.53 87.33 C171.76 80.87, 177.07 77.84, 179.34 73.74 M167.53 87.33 C171.62 84.17, 174.12 79.69, 179.34 73.74" stroke="#ced4da" stroke-width="0.5" fill="none"></path><path d="M21.91 0 M21.91 0 C49.32 0.42, 78.27 -1.78, 158.93 0 M21.91 0 C67.17 -0.36, 112.15 -1.16, 158.93 0 M158.93 0 C172.47 -1.8, 179.9 7.23, 180.83 21.91 M158.93 0 C173.51 1.63, 178.75 7.33, 180.83 21.91 M180.83 21.91 C180.52 32.26, 178.64 40.96, 180.83 65.72 M180.83 21.91 C181.18 37.62, 180.33 52.98, 180.83 65.72 M180.83 65.72 C178.85 81.95, 174.29 85.72, 158.93 87.62 M180.83 65.72 C181.69 79.79, 171.79 87.51, 158.93 87.62 M158.93 87.62 C125.19 85.7, 88.62 86.21, 21.91 87.62 M158.93 87.62 C116.31 88.04, 73.61 86.47, 21.91 87.62 M21.91 87.62 C8.22 87.53, -1.59 79.32, 0 65.72 M21.91 87.62 C8.11 86.14, 1.97 79.37, 0 65.72 M0 65.72 C1.33 55.18, -1.44 48.11, 0 21.91 M0 65.72 C1.14 49.18, 0.8 33.03, 0 21.91 M0 21.91 C-0.2 7.57, 6.43 0.75, 21.91 0 M0 21.91 C-0.35 6.32, 7.63 1.51, 21.91 0" stroke="#1e1e1e" stroke-width="1" fill="none"></path></g><g transform="translate(56.33923724438205 187.6405059409642) rotate(0 46.83995056152344 24.999999999999986)"><text x="46.83995056152344" y="0" font-family="Virgil, Segoe UI Emoji" font-size="20px" fill="#1e1e1e" text-anchor="middle" style="white-space: pre;" direction="ltr" dominant-baseline="text-before-edge">Python </text><text x="46.83995056152344" y="25" font-family="Virgil, Segoe UI Emoji" font-size="20px" fill="#1e1e1e" text-anchor="middle" style="white-space: pre;" direction="ltr" dominant-baseline="text-before-edge">webserver</text></g><g stroke-linecap="round"><g transform="translate(202.75107990626486 228.4111269438564) rotate(0 13.463227405239252 -83.35485083858816)"><path d="M-0.04 0.92 C5.69 -13.07, 34.43 -56.52, 33.39 -84.33 C32.35 -112.13, 0.47 -152.08, -6.28 -165.92 M-1.52 0.36 C4.24 -13.94, 33.82 -58.06, 33 -86.06 C32.17 -114.06, 0.14 -154.25, -6.49 -167.63" stroke="#1e1e1e" stroke-width="1" fill="none"></path></g><g transform="translate(202.75107990626486 228.4111269438564) rotate(0 13.463227405239252 -83.35485083858816)"><path d="M18.62 -147.3 C13.31 -151.31, 9.01 -156.69, -6.87 -168.11 M16.23 -149.83 C11.98 -153.69, 7.59 -157.72, -6.03 -168.55" stroke="#1e1e1e" stroke-width="1" fill="none"></path></g><g transform="translate(202.75107990626486 228.4111269438564) rotate(0 13.463227405239252 -83.35485083858816)"><path d="M1.17 -136.49 C-0.36 -142.82, -0.91 -150.52, -6.87 -168.11 M-1.22 -139.03 C-1.79 -145.16, -2.53 -151.46, -6.03 -168.55" stroke="#1e1e1e" stroke-width="1" fill="none"></path></g></g><mask></mask></svg>